<?xml version="1.0" encoding="UTF-8" standalone="no"?>
<svg
   width="1000"
   height="1000"
   viewBox="0 0 1000 1000"
   version="1.1"
   id="svg1"
   xmlns="http://www.w3.org/2000/svg"
   xmlns:svg="http://www.w3.org/2000/svg">
  <defs
     id="defs1" />
  <path
     id="path1"
     style="fill:#111111;fill-opacity:1;stroke-width:1.59461"
     d="m 444.86623,100.00221 c -33.18628,0.0283 -66.37265,0.0624 -99.55876,0.1784 -26.97418,0.11373 -53.94904,0.27104 -80.92033,0.69857 -7.66788,0.16642 -15.27707,0.33065 -22.93007,1.05819 -3.03819,0.35733 -6.10656,1.01612 -9.00173,1.71472 -0.85865,0.21092 -1.80977,0.43886 -2.59834,0.64982 -2.09307,0.55356 -4.03272,1.10205 -6.12281,1.70576 -10.95699,3.17621 -21.60694,7.4293 -31.73864,12.71414 -20.07073,10.44936 -38.12669,24.93072 -52.47805,42.58339 -10.14613,12.41941 -18.46445,26.33272 -24.86044,41.0813 -0.66405,1.56578 -1.40669,3.31156 -2.06382,4.96333 -2.43543,6.0517 -4.55365,12.35695 -6.2111,18.59924 -0.9627,3.60722 -1.84622,7.43782 -2.54655,11.1116 -0.24737,1.24887 -0.47873,2.59699 -0.69533,3.83861 -0.94013,5.61001 -1.5948,11.19521 -2.01278,16.80404 -0.14953,2.0339 -0.25932,4.09546 -0.33819,6.05827 -0.28039,7.80807 -0.32956,15.77627 -0.45293,23.65328 -0.428362,33.04836 -0.32513,66.10046 -0.32614,99.1508 0.0615,49.71778 0.28131,99.43524 0.5399,149.15232 0.14348,19.91868 0.32591,39.85678 1.19994,59.73257 0.51742,11.56141 1.46454,23.23578 4.80452,34.36108 1.60008,5.23062 3.50917,10.3192 5.44643,15.39549 2.10104,5.44866 4.26864,10.87841 6.87476,16.10397 10.86063,22.07245 26.68439,41.40324 45.02062,57.53487 4.79004,4.21601 9.82441,8.1891 15.00046,11.82524 2.0844,1.45784 4.15179,2.84419 6.34853,4.23433 7.86803,4.99328 16.33014,9.34123 25.06915,12.72189 5.17406,2.00623 10.47191,3.67711 15.90428,4.9892 3.51821,0.85257 7.25359,1.58247 10.90911,2.09587 1.64695,0.23775 3.21003,0.4247 4.81446,0.59305 7.12759,0.7538 14.37908,0.82752 21.48252,0.53761 5.11827,-0.26463 10.23797,-1.28099 14.91681,-3.44641 4.71189,-2.05218 8.97532,-5.03942 12.83803,-8.43218 0.51766,-0.46095 1.23457,-1.11436 1.82059,-1.65878 8.69195,-7.75195 16.95141,-15.9003 25.29902,-24.05203 21.98045,-21.58708 43.64373,-43.46701 65.37424,-65.3124 55.21523,-55.65669 110.26879,-111.47726 165.38199,-167.23735 18.76394,-18.99307 37.52949,-37.98453 56.29241,-56.97863 0.047,25.29845 -0.10982,50.59893 0.29127,75.89527 0.11631,5.78063 0.21107,11.59372 1.13134,17.31236 0.38686,2.25477 0.95958,4.48564 1.83918,6.59789 0.1343,0.31343 0.43681,0.99364 0.64559,1.44227 5.2131,11.14886 15.35638,19.7605 27.06035,23.15607 2.69192,0.79473 5.4624,1.31617 8.25711,1.55032 0.36669,0.0303 1.09678,0.0791 1.60298,0.0999 8.09951,0.37892 16.30424,-1.54707 23.3685,-5.5873 0.296,-0.17234 0.93037,-0.53971 1.34497,-0.80644 6.02757,-3.76884 11.04135,-9.16417 14.50288,-15.4121 2.44551,-4.41918 3.95135,-9.35707 4.36932,-14.40554 0.48063,-4.70177 0.53795,-9.40024 0.69506,-14.08958 0.51452,-19.75863 0.38394,-39.52628 0.44322,-59.28973 0.0183,-32.78282 0.0743,-65.56624 -0.16209,-98.34843 -0.0728,-7.03896 -0.13783,-14.13682 -0.4301,-21.11428 -0.32553,-5.8306 -0.34697,-11.8011 -2.24189,-17.38696 -1.55402,-4.85534 -4.41205,-9.16338 -7.55451,-13.10612 -4.06158,-4.93105 -9.08105,-9.17501 -14.91507,-11.77406 -2.88111,-1.22992 -6.00943,-1.70167 -9.12003,-1.74569 -15.3122,-0.71782 -30.68907,-0.85783 -46.04969,-1.03197 -43.50131,-0.394 -87.00722,-0.39137 -130.50722,0.15607 -7.74941,0.0935 -15.58468,0.24927 -23.27714,0.46621 -4.67907,0.19384 -9.37081,0.26467 -14.03242,0.74045 -3.11882,0.39279 -6.11509,1.53158 -8.76702,3.22946 -5.81947,3.54058 -10.77962,8.48553 -14.53271,14.20011 -3.87434,5.94222 -6.38484,12.82372 -7.04528,19.92305 -0.0278,0.38425 -0.0918,1.12135 -0.11681,1.64184 -0.24454,4.96811 0.38783,9.98082 1.88625,14.71962 0.14982,0.47584 0.40997,1.2501 0.62493,1.83252 4.0022,11.03927 12.79259,20.22788 23.62373,24.51791 3.5719,1.43229 7.37598,2.18329 11.20185,2.44114 0.73218,0.0547 1.55725,0.13505 2.3303,0.18374 2.78248,0.20126 5.57089,0.30189 8.35883,0.3881 17.42616,0.36794 35.03141,0.3337 52.527,0.40247 10.61527,0.0158 21.23028,0.0926 31.845,0.20053 -67.80976,68.86 -135.85278,137.47945 -203.84019,206.15962 -29.42329,29.71376 -58.84871,59.42534 -88.27064,89.14045 -6.32515,-1.64869 -12.59861,-3.75613 -18.25199,-7.12445 -16.34207,-9.39745 -29.12914,-24.89562 -35.45758,-42.79644 -1.53265,-4.38036 -2.49441,-8.97573 -2.6346,-13.62798 -0.83025,-15.83065 -0.81701,-31.68947 -0.96924,-47.53748 -0.2771,-41.41399 -0.21111,-82.82924 -0.23799,-124.2439 -0.0145,-56.32168 -0.0184,-112.64336 -0.0217,-168.96504 2.83351,-9.00743 5.32982,-18.24789 10.03388,-26.49129 8.07486,-14.58537 21.05407,-26.41305 36.42397,-32.63307 5.28698,-2.2452 10.91273,-3.8681 16.67887,-3.97566 11.14834,-0.53536 22.31107,-0.66139 33.4696,-0.83079 22.66137,-0.256 45.32447,-0.2951 67.98694,-0.37163 67.27638,-0.18104 134.55308,-0.11444 201.82963,-0.13399 44.46727,0.0223 88.93553,-0.041 133.40158,0.34302 14.962,0.18086 29.93149,0.35096 44.87435,1.18296 5.36412,0.35811 10.75323,0.75123 16.02435,1.86512 3.05363,0.69246 5.89439,2.08323 8.54375,3.74012 5.43198,3.15699 10.79335,6.53411 15.42601,10.83539 10.7638,9.68896 18.88947,22.22934 23.84636,35.88912 0.79304,2.20939 1.69629,4.38996 2.31464,6.65666 0.31452,1.80581 0.0711,3.64802 0.15726,5.47056 0.2105,87.23398 0.48372,174.4679 0.54362,261.70215 -0.006,23.83768 0.0356,47.68196 -0.70812,71.51021 -0.21649,5.32085 -0.47513,10.73098 -2.18588,15.81585 -4.90321,16.22663 -15.31705,30.58497 -28.85077,40.54478 -5.7483,4.28241 -12.08454,7.70041 -18.67036,10.4614 -2.44994,1.00323 -4.8875,2.05965 -7.39555,2.90225 -2.02324,0.49061 -4.11675,0.14476 -6.17226,0.26395 -83.35707,0.52693 -166.71414,1.05385 -250.0712,1.58077 -5.68155,3.21397 -11.80504,5.86267 -16.62922,10.39946 -8.11581,7.09475 -15.76247,14.60873 -23.53824,22.07993 -22.74631,22.10719 -45.07719,44.64683 -67.31379,67.27722 -17.3203,17.70691 -34.5348,35.52516 -51.32963,53.74465 -3.7014,4.09806 -7.44065,8.18977 -10.67574,12.68137 -0.61688,0.9597 -1.17614,1.95585 -1.70237,2.96899 -0.16903,0.34263 -0.49498,0.98849 -0.70523,1.45619 -2.01417,4.46315 -3.39896,9.22994 -4.06296,14.09101 -0.37957,3.20946 -0.408,6.45966 -0.11453,9.67773 0.0377,0.39072 0.11282,1.13462 0.1854,1.6578 0.17139,1.37151 0.43061,2.82709 0.70166,4.06619 1.76068,8.20359 5.77619,15.89557 11.52911,21.94962 7.59156,8.11302 17.99618,13.73151 29.06169,14.73572 7.36916,0.61024 14.81698,-0.59656 21.80593,-2.96012 1.18653,-0.41188 2.33639,-0.86438 3.41472,-1.33612 3.74583,-1.58745 6.70322,-4.49282 9.58534,-7.29803 15.6632,-14.7822 30.82343,-30.12285 46.07199,-45.37148 28.43634,-28.54313 56.64866,-57.3134 84.97368,-85.96939 20.29475,0.0715 40.5897,0.0123 60.88454,0.0286 39.97187,-0.0141 79.94403,7.9e-4 119.91553,-0.18266 9.49482,-0.0814 19.06799,-0.17903 28.51081,-0.46724 8.58719,-0.30887 17.18195,-0.64865 25.73556,-1.50764 9.7642,-1.03071 19.42404,-3.26571 28.55929,-6.92706 7.97947,-2.98324 15.76759,-6.49646 23.26016,-10.57518 0.74964,-0.42353 1.73428,-0.95863 2.57076,-1.43218 4.92256,-2.80093 9.70476,-5.85377 14.31414,-9.15595 1.03436,-0.74927 2.25634,-1.61955 3.34025,-2.44783 11.23399,-8.4133 21.41844,-18.24499 30.33356,-29.13327 0.4741,-0.59787 1.13029,-1.40845 1.67432,-2.08801 5.16058,-6.517 9.85858,-13.40726 14.06054,-20.59481 0.34263,-0.6096 0.83491,-1.46285 1.23498,-2.166 0.75197,-1.31642 1.58531,-2.85832 2.30386,-4.21469 7.01921,-13.31215 12.30872,-27.56539 15.61537,-42.28035 0.39656,-1.77877 0.791,-3.75402 1.13952,-5.61823 1.0492,-5.7238 1.80848,-11.51032 2.01261,-17.33245 0.37323,-7.75563 0.37614,-15.61115 0.51892,-23.42639 0.58407,-47.89919 0.36534,-95.80303 0.30362,-143.70445 -0.12509,-63.08131 -0.3177,-126.16244 -0.49372,-189.24361 -2.22873,-8.12503 -4.31606,-16.20093 -6.81156,-24.24804 -0.51948,-1.64067 -1.10565,-3.46549 -1.67973,-5.16667 -2.64677,-7.88154 -5.97799,-15.51323 -9.70802,-22.92727 -11.59886,-22.8178 -28.23239,-43.06896 -48.61591,-58.37539 -4.46034,-3.38602 -9.10004,-6.52751 -13.86214,-9.46164 -1.49222,-0.90724 -3.15096,-1.9021 -4.73279,-2.80039 -14.71672,-8.40173 -30.60623,-14.70605 -47.04585,-18.65523 -3.2434,-0.70461 -6.54538,-1.09203 -9.84953,-1.35917 -0.80197,-0.0469 -1.86585,-0.13631 -2.77301,-0.17213 -7.7184,-0.36336 -15.40428,-0.49892 -23.15125,-0.65654 -27.24882,-0.4726 -54.50271,-0.41743 -81.75444,-0.51352 -68.188,-0.144139 -136.37625,-0.091 -204.56435,-0.10023 z" />
</svg>
